<svg viewBox="0 0 100 100" xmlns="http://www.w3.org/2000/svg">
  <circle cx="50" cy="50" r="45" fill="none" stroke="#000080" stroke-width="8" />
  <circle cx="50" cy="50" r="10" fill="#000080" />
  <g stroke="#000080" stroke-width="4">
    <line x1="50" y1="50" x2="50" y2="5" transform="rotate(0 50 50)" />
    <line x1="50" y1="50" x2="50" y2="5" transform="rotate(15 50 50)" />
    <line x1="50" y1="50" x2="50" y2="5" transform="rotate(30 50 50)" />
    <line x1="50" y1="50" x2="50" y2="5" transform="rotate(45 50 50)" />
    <line x1="50" y1="50" x2="50" y2="5" transform="rotate(60 50 50)" />
    <line x1="50" y1="50" x2="50" y2="5" transform="rotate(75 50 50)" />
    <line x1="50" y1="50" x2="50" y2="5" transform="rotate(90 50 50)" />
    <line x1="50" y1="50" x2="50" y2="5" transform="rotate(105 50 50)" />
    <line x1="50" y1="50" x2="50" y2="5" transform="rotate(120 50 50)" />
    <line x1="50" y1="50" x2="50" y2="5" transform="rotate(135 50 50)" />
    <line x1="50" y1="50" x2="50" y2="5" transform="rotate(150 50 50)" />
    <line x1="50" y1="50" x2="50" y2="5" transform="rotate(165 50 50)" />
    <line x1="50" y1="50" x2="50" y2="5" transform="rotate(180 50 50)" />
    <line x1="50" y1="50" x2="50" y2="5" transform="rotate(195 50 50)" />
    <line x1="50" y1="50" x2="50" y2="5" transform="rotate(210 50 50)" />
    <line x1="50" y1="50" x2="50" y2="5" transform="rotate(225 50 50)" />
    <line x1="50" y1="50" x2="50" y2="5" transform="rotate(240 50 50)" />
    <line x1="50" y1="50" x2="50" y2="5" transform="rotate(255 50 50)" />
    <line x1="50" y1="50" x2="50" y2="5" transform="rotate(270 50 50)" />
    <line x1="50" y1="50" x2="50" y2="5" transform="rotate(285 50 50)" />
    <line x1="50" y1="50" x2="50" y2="5" transform="rotate(300 50 50)" />
    <line x1="50" y1="50" x2="50" y2="5" transform="rotate(315 50 50)" />
    <line x1="50" y1="50" x2="50" y2="5" transform="rotate(330 50 50)" />
    <line x1="50" y1="50" x2="50" y2="5" transform="rotate(345 50 50)" />
  </g>
</svg>